<svg id="visual" viewBox="0 0 900 600" width="900" height="600" xmlns="http://www.w3.org/2000/svg" xmlns:xlink="http://www.w3.org/1999/xlink" version="1.1"><g stroke-width="1" stroke-linejoin="bevel"><path d="M489 288L426 234L421 260Z" fill="#06a610" stroke="#06a610"></path><path d="M489 288L487 206L426 234Z" fill="#059e10" stroke="#059e10"></path><path d="M489 288L575 216L487 206Z" fill="#0ac60d" stroke="#0ac60d"></path><path d="M418 76L337 235L426 234Z" fill="#06ae10" stroke="#06ae10"></path><path d="M426 234L337 235L421 260Z" fill="#0ac60d" stroke="#0ac60d"></path><path d="M421 260L373 364L489 288Z" fill="#07b60f" stroke="#07b60f"></path><path d="M337 235L373 364L421 260Z" fill="#059e10" stroke="#059e10"></path><path d="M601 374L597 308L489 288Z" fill="#06ae10" stroke="#06ae10"></path><path d="M489 288L597 308L575 216Z" fill="#0ac60d" stroke="#0ac60d"></path><path d="M575 216L478 111L487 206Z" fill="#0cce0b" stroke="#0cce0b"></path><path d="M487 206L478 111L426 234Z" fill="#059710" stroke="#059710"></path><path d="M373 364L480 400L489 288Z" fill="#0ac60d" stroke="#0ac60d"></path><path d="M480 400L601 374L489 288Z" fill="#10df07" stroke="#10df07"></path><path d="M478 111L418 76L426 234Z" fill="#058f10" stroke="#058f10"></path><path d="M235 223L281 294L337 235Z" fill="#10df07" stroke="#10df07"></path><path d="M337 235L281 294L373 364Z" fill="#0cce0b" stroke="#0cce0b"></path><path d="M667 135L618 94L575 216Z" fill="#0cce0b" stroke="#0cce0b"></path><path d="M575 216L618 94L478 111Z" fill="#059e10" stroke="#059e10"></path><path d="M478 111L437 0L418 76Z" fill="#0ed709" stroke="#0ed709"></path><path d="M721 225L575 216L597 308Z" fill="#06ae10" stroke="#06ae10"></path><path d="M601 374L676 338L597 308Z" fill="#08be0e" stroke="#08be0e"></path><path d="M262 83L235 223L337 235Z" fill="#0ed709" stroke="#0ed709"></path><path d="M721 225L667 135L575 216Z" fill="#0ac60d" stroke="#0ac60d"></path><path d="M209 374L272 405L281 294Z" fill="#06a610" stroke="#06a610"></path><path d="M281 294L272 405L373 364Z" fill="#0cce0b" stroke="#0cce0b"></path><path d="M399 524L532 515L480 400Z" fill="#0ed709" stroke="#0ed709"></path><path d="M517 0L437 0L478 111Z" fill="#0ac60d" stroke="#0ac60d"></path><path d="M418 76L262 83L337 235Z" fill="#0ed709" stroke="#0ed709"></path><path d="M676 338L721 225L597 308Z" fill="#06ae10" stroke="#06ae10"></path><path d="M618 94L517 0L478 111Z" fill="#07b60f" stroke="#07b60f"></path><path d="M596 0L517 0L618 94Z" fill="#06a610" stroke="#06a610"></path><path d="M260 0L262 83L418 76Z" fill="#0cce0b" stroke="#0cce0b"></path><path d="M399 524L480 400L373 364Z" fill="#08be0e" stroke="#08be0e"></path><path d="M480 400L532 515L601 374Z" fill="#10df07" stroke="#10df07"></path><path d="M601 374L722 427L676 338Z" fill="#06ae10" stroke="#06ae10"></path><path d="M272 405L399 524L373 364Z" fill="#058f10" stroke="#058f10"></path><path d="M189 338L209 374L281 294Z" fill="#0cce0b" stroke="#0cce0b"></path><path d="M272 405L263 531L399 524Z" fill="#06a610" stroke="#06a610"></path><path d="M235 223L189 338L281 294Z" fill="#10df07" stroke="#10df07"></path><path d="M129 304L189 338L235 223Z" fill="#10df07" stroke="#10df07"></path><path d="M721 0L618 94L667 135Z" fill="#08be0e" stroke="#08be0e"></path><path d="M721 0L596 0L618 94Z" fill="#0ed709" stroke="#0ed709"></path><path d="M185 0L198 108L262 83Z" fill="#059e10" stroke="#059e10"></path><path d="M262 83L198 108L235 223Z" fill="#08be0e" stroke="#08be0e"></path><path d="M532 515L637 510L601 374Z" fill="#08be0e" stroke="#08be0e"></path><path d="M676 338L809 273L721 225Z" fill="#06a610" stroke="#06a610"></path><path d="M590 600L637 510L532 515Z" fill="#10df07" stroke="#10df07"></path><path d="M637 510L722 427L601 374Z" fill="#059e10" stroke="#059e10"></path><path d="M437 0L260 0L418 76Z" fill="#059e10" stroke="#059e10"></path><path d="M69 224L129 304L235 223Z" fill="#07b60f" stroke="#07b60f"></path><path d="M189 338L121 382L209 374Z" fill="#06ae10" stroke="#06ae10"></path><path d="M172 475L263 531L272 405Z" fill="#06ae10" stroke="#06ae10"></path><path d="M172 475L272 405L209 374Z" fill="#08be0e" stroke="#08be0e"></path><path d="M437 600L469 600L399 524Z" fill="#059e10" stroke="#059e10"></path><path d="M399 524L469 600L532 515Z" fill="#059710" stroke="#059710"></path><path d="M336 600L437 600L399 524Z" fill="#10df07" stroke="#10df07"></path><path d="M836 376L809 273L676 338Z" fill="#0cce0b" stroke="#0cce0b"></path><path d="M721 225L776 99L667 135Z" fill="#06a610" stroke="#06a610"></path><path d="M806 185L776 99L721 225Z" fill="#06a610" stroke="#06a610"></path><path d="M809 273L806 185L721 225Z" fill="#07b60f" stroke="#07b60f"></path><path d="M637 510L722 505L722 427Z" fill="#0ac60d" stroke="#0ac60d"></path><path d="M722 427L836 376L676 338Z" fill="#059710" stroke="#059710"></path><path d="M727 600L722 505L637 510Z" fill="#06ae10" stroke="#06ae10"></path><path d="M776 99L721 0L667 135Z" fill="#08be0e" stroke="#08be0e"></path><path d="M129 304L121 382L189 338Z" fill="#0ac60d" stroke="#0ac60d"></path><path d="M121 382L172 475L209 374Z" fill="#08be0e" stroke="#08be0e"></path><path d="M216 600L336 600L263 531Z" fill="#0cce0b" stroke="#0cce0b"></path><path d="M263 531L336 600L399 524Z" fill="#10df07" stroke="#10df07"></path><path d="M469 600L590 600L532 515Z" fill="#0ac60d" stroke="#0ac60d"></path><path d="M260 0L185 0L262 83Z" fill="#06ae10" stroke="#06ae10"></path><path d="M198 108L88 134L235 223Z" fill="#06a610" stroke="#06a610"></path><path d="M800 472L836 376L722 427Z" fill="#10df07" stroke="#10df07"></path><path d="M809 273L900 183L806 185Z" fill="#0ed709" stroke="#0ed709"></path><path d="M185 0L88 134L198 108Z" fill="#0ac60d" stroke="#0ac60d"></path><path d="M129 304L0 302L121 382Z" fill="#059e10" stroke="#059e10"></path><path d="M88 134L69 224L235 223Z" fill="#059e10" stroke="#059e10"></path><path d="M830 600L800 472L722 505Z" fill="#0cce0b" stroke="#0cce0b"></path><path d="M722 505L800 472L722 427Z" fill="#059e10" stroke="#059e10"></path><path d="M172 475L216 600L263 531Z" fill="#058f10" stroke="#058f10"></path><path d="M94 600L216 600L172 475Z" fill="#058f10" stroke="#058f10"></path><path d="M900 114L803 0L776 99Z" fill="#0cce0b" stroke="#0cce0b"></path><path d="M776 99L803 0L721 0Z" fill="#058f10" stroke="#058f10"></path><path d="M900 114L776 99L806 185Z" fill="#0ed709" stroke="#0ed709"></path><path d="M590 600L727 600L637 510Z" fill="#058f10" stroke="#058f10"></path><path d="M900 363L900 284L836 376Z" fill="#06ae10" stroke="#06ae10"></path><path d="M836 376L900 284L809 273Z" fill="#08be0e" stroke="#08be0e"></path><path d="M900 284L900 183L809 273Z" fill="#06ae10" stroke="#06ae10"></path><path d="M900 530L900 363L836 376Z" fill="#10df07" stroke="#10df07"></path><path d="M900 530L836 376L800 472Z" fill="#0cce0b" stroke="#0cce0b"></path><path d="M900 183L900 114L806 185Z" fill="#08be0e" stroke="#08be0e"></path><path d="M0 121L69 224L88 134Z" fill="#06a610" stroke="#06a610"></path><path d="M0 121L0 221L69 224Z" fill="#06ae10" stroke="#06ae10"></path><path d="M69 224L0 302L129 304Z" fill="#058f10" stroke="#058f10"></path><path d="M121 382L60 491L172 475Z" fill="#06ae10" stroke="#06ae10"></path><path d="M0 221L0 302L69 224Z" fill="#10df07" stroke="#10df07"></path><path d="M185 0L72 0L88 134Z" fill="#0ac60d" stroke="#0ac60d"></path><path d="M0 401L60 491L121 382Z" fill="#058f10" stroke="#058f10"></path><path d="M72 0L0 121L88 134Z" fill="#06ae10" stroke="#06ae10"></path><path d="M0 302L0 401L121 382Z" fill="#059710" stroke="#059710"></path><path d="M727 600L830 600L722 505Z" fill="#0cce0b" stroke="#0cce0b"></path><path d="M60 491L94 600L172 475Z" fill="#059e10" stroke="#059e10"></path><path d="M0 511L94 600L60 491Z" fill="#08be0e" stroke="#08be0e"></path><path d="M900 114L900 0L803 0Z" fill="#10df07" stroke="#10df07"></path><path d="M830 600L900 530L800 472Z" fill="#058f10" stroke="#058f10"></path><path d="M72 0L0 0L0 121Z" fill="#0ed709" stroke="#0ed709"></path><path d="M0 401L0 511L60 491Z" fill="#08be0e" stroke="#08be0e"></path><path d="M830 600L900 600L900 530Z" fill="#058f10" stroke="#058f10"></path><path d="M0 511L0 600L94 600Z" fill="#0ed709" stroke="#0ed709"></path></g></svg>